HIERARCHY
ROOT Hips
{
	OFFSET 0.000000 0.000000 0.000000
	CHANNELS 6 Xposition Yposition Zposition Zrotation Yrotation Xrotation
	JOINT LHipJoint
	{
		OFFSET 0.000000 0.000000 0.000000
		CHANNELS 3 Zrotation Yrotation Xrotation
		JOINT LeftUpLeg
		{
			OFFSET 0.076937 -0.101296 0.047373
			CHANNELS 3 Zrotation Yrotation Xrotation
			JOINT LeftLeg
			{
				OFFSET 0.138181 -0.379650 0.000000
				CHANNELS 3 Zrotation Yrotation Xrotation
				JOINT LeftFoot
				{
					OFFSET 0.144621 -0.397343 0.000000
					CHANNELS 3 Zrotation Yrotation Xrotation
					JOINT LeftToeBase
					{
						OFFSET 0.008898 -0.024446 0.131094
						CHANNELS 3 Zrotation Yrotation Xrotation
						End Site
						{
							OFFSET 0.000000 0.000000 0.000000
						}
					}
				}
			}
		}
	}
	JOINT RHipJoint
	{
		OFFSET 0.000000 0.000000 0.000000
		CHANNELS 3 Zrotation Yrotation Xrotation
		JOINT RightUpLeg
		{
			OFFSET -0.073689 -0.101296 0.047373
			CHANNELS 3 Zrotation Yrotation Xrotation
			JOINT RightLeg
			{
				OFFSET -0.143511 -0.394292 0.000000
				CHANNELS 3 Zrotation Yrotation Xrotation
				JOINT RightFoot
				{
					OFFSET -0.144963 -0.398282 0.000000
					CHANNELS 3 Zrotation Yrotation Xrotation
					JOINT RightToeBase
					{
						OFFSET -0.009298 -0.025546 0.133386
						CHANNELS 3 Zrotation Yrotation Xrotation
						End Site
						{
							OFFSET 0.000000 0.000000 0.000000
						}
					}
				}
			}
		}
	}
	JOINT LowerBack
	{
		OFFSET 0.000000 0.000000 0.000000
		CHANNELS 3 Zrotation Yrotation Xrotation
		JOINT Spine
		{
			OFFSET 0.001596 0.114897 -0.010915
			CHANNELS 3 Zrotation Yrotation Xrotation
			JOINT Spine1
			{
				OFFSET 0.003201 0.115645 -0.002413
				CHANNELS 3 Zrotation Yrotation Xrotation
				JOINT Neck
				{
					OFFSET 0.000000 0.000000 0.000000
					CHANNELS 3 Zrotation Yrotation Xrotation
					JOINT Neck1
					{
						OFFSET -0.003058 0.098565 0.009709
						CHANNELS 3 Zrotation Yrotation Xrotation
						JOINT Head
						{
							OFFSET 0.005874 0.099418 -0.006997
							CHANNELS 3 Zrotation Yrotation Xrotation
							End Site
							{
								OFFSET 0.000000 0.000000 0.000000
							}
						}
					}
				}
				JOINT LeftShoulder
				{
					OFFSET 0.000000 0.000000 0.000000
					CHANNELS 3 Zrotation Yrotation Xrotation
					JOINT LeftArm
					{
						OFFSET 0.189788 0.067783 -0.017566
						CHANNELS 3 Zrotation Yrotation Xrotation
						JOINT LeftForeArm
						{
							OFFSET 0.281260 -0.000000 -0.000000
							CHANNELS 3 Zrotation Yrotation Xrotation
							JOINT LeftHand
							{
								OFFSET 0.196626 -0.000000 -0.000000
								CHANNELS 3 Zrotation Yrotation Xrotation
								JOINT LeftFingerBase
								{
									OFFSET 0.000000 0.000000 0.000000
									CHANNELS 3 Zrotation Yrotation Xrotation
									JOINT LeftHandIndex1
									{
										OFFSET 0.040372 -0.000000 -0.000000
										CHANNELS 3 Zrotation Yrotation Xrotation
										End Site
										{
											OFFSET 0.000000 0.000000 0.000000
										}
									}
								}
								JOINT LThumb
								{
									OFFSET 0.000000 0.000000 0.000000
									CHANNELS 3 Zrotation Yrotation Xrotation
									End Site
									{
										OFFSET 0.000000 0.000000 0.000000
									}
								}
							}
						}
					}
				}
				JOINT RightShoulder
				{
					OFFSET 0.000000 0.000000 0.000000
					CHANNELS 3 Zrotation Yrotation Xrotation
					JOINT RightArm
					{
						OFFSET -0.177042 0.077557 -0.022840
						CHANNELS 3 Zrotation Yrotation Xrotation
						JOINT RightForeArm
						{
							OFFSET -0.295874 -0.000000 -0.000000
							CHANNELS 3 Zrotation Yrotation Xrotation
							JOINT RightHand
							{
								OFFSET -0.194403 -0.000000 -0.000000
								CHANNELS 3 Zrotation Yrotation Xrotation
								JOINT RightFingerBase
								{
									OFFSET 0.000000 0.000000 0.000000
									CHANNELS 3 Zrotation Yrotation Xrotation
									JOINT RightHandIndex1
									{
										OFFSET -0.035138 -0.000000 -0.000000
										CHANNELS 3 Zrotation Yrotation Xrotation
										End Site
										{
											OFFSET 0.000000 0.000000 0.000000
										}
									}
								}
								JOINT RThumb
								{
									OFFSET 0.000000 0.000000 0.000000
									CHANNELS 3 Zrotation Yrotation Xrotation
									End Site
									{
										OFFSET 0.000000 0.000000 0.000000
									}
								}
							}
						}
					}
				}
			}
		}
	}
}
MOTION
Frames: 5
Frame Time: 0.033333
18.104895 0.945520 -2.982218 -5.082881 67.806481 -3.175248 -10.322256 25.743451 -8.951184 -32.511846 -7.537459 -16.457964 6.949516 4.691914 33.669044 40.941448 -11.951577 -0.179378 -6.670347 4.836156 -11.144616 0.858728 -28.324705 2.652572 8.658000 0.901731 -18.992113 -25.306644 -8.939885 71.484646 -46.172074 36.663897 8.566767 11.547664 -25.317508 -7.863964 -3.360460 5.639712 18.232012 12.611283 6.943593 13.541908 -8.116501 -2.397972 -30.712530 -6.055666 2.819608 -14.197863 4.792260 2.843407 8.494294 -1.258474 1.025584 -9.163597 11.008562 28.507326 14.482206 -63.637841 -2.866395 50.147448 166.042722 -79.801074 -168.717840 8.976735 -17.147116 8.592877 -1.586838 10.541497 0.301028 -0.012325 0.011283 0.017223 0.005480 -0.004502 0.001735 -14.613230 -40.734799 -4.932055 77.308490 1.850119 62.208072 175.853524 86.798697 -178.395900 -7.933997 30.979262 8.500815 3.250949 -8.815357 -0.114433 -0.032585 -0.036187 0.049896 -0.005730 0.000161 0.010590 
18.159450 0.930688 -2.962129 -5.183307 69.980630 -3.973562 -10.519264 26.214537 -9.523166 -33.891904 -7.847638 -14.935798 11.499096 5.842045 40.700396 43.142304 -10.048780 -4.087887 -5.526627 4.952182 -10.986987 1.268067 -28.033521 2.298734 7.103459 4.078368 -23.576805 -29.076731 -8.227890 76.712128 -47.580391 32.801684 7.601447 10.468374 -24.671560 -7.933303 -2.654502 5.484449 18.165464 11.783890 6.575773 13.862382 -8.513251 -3.480738 -31.683653 -5.892788 2.037721 -13.976570 4.577630 1.727084 9.479918 -1.378000 0.629921 -8.645422 9.654873 29.749640 13.577549 -65.066160 -3.938381 48.972827 167.856265 -80.008579 -169.713634 9.155917 -15.632140 7.812049 -0.544895 10.641593 0.274029 -0.012919 0.015012 0.018269 0.006377 -0.007760 0.000632 -13.427299 -42.101911 -4.629234 75.524707 1.800255 61.722916 26.977163 87.912494 34.050344 -7.717013 31.359379 9.446829 3.755921 -8.995959 -0.082538 -0.031965 -0.032666 0.050929 -0.008587 -0.001326 0.010631 
18.211222 0.923401 -2.945362 -4.900735 71.652003 -3.671758 -10.470732 26.536364 -9.358208 -34.355941 -7.675185 -13.399192 14.913850 6.554564 46.538339 43.931262 -8.780108 -8.116938 -4.922160 5.438789 -11.444921 1.563721 -27.966627 1.015430 7.230253 6.471766 -27.875004 -29.727589 -6.397932 78.286666 -43.189033 25.337770 9.520383 10.276248 -21.360678 -8.513064 -1.413385 5.482465 18.556440 11.237650 6.218183 14.303696 -9.667390 -4.845036 -32.385548 -5.723731 1.223870 -13.635548 4.040128 0.714831 10.306154 -1.523822 0.470331 -8.187436 8.163072 30.323318 12.240788 -67.651143 -5.440745 48.301964 169.659213 -80.415574 -170.241432 9.427235 -14.484555 7.035368 0.593498 10.604123 0.277743 -0.010473 0.014274 0.018336 0.006156 -0.009649 -0.001249 -12.814050 -43.280760 -4.343562 74.179164 1.393320 59.569709 14.296127 82.882272 21.879841 -7.428193 30.757878 9.778686 4.045411 -9.206184 -0.071589 -0.033883 -0.032575 0.050123 -0.008769 -0.002805 0.007966 
18.261642 0.924772 -2.932108 -5.092525 73.558509 -3.390973 -10.726912 26.694719 -8.158893 -34.043661 -6.964896 -11.808063 16.330546 7.260704 49.324430 45.553936 -9.361037 -11.115207 -5.069409 6.106926 -12.844662 1.453386 -27.853578 -0.625412 8.978190 8.829252 -30.869879 -28.396490 -3.986032 76.632776 -36.671032 14.726929 11.114618 9.698265 -15.409497 -10.242731 -0.983697 5.719427 19.732144 12.704682 6.601815 14.209800 -11.926500 -6.965101 -32.458348 -6.029136 1.677011 -13.407042 3.386571 1.115921 10.654583 -1.520936 1.025340 -7.857084 7.169721 29.450220 11.042174 -70.950301 -7.506309 49.602209 175.781333 -78.411351 -175.134695 9.463663 -14.004568 5.860404 2.081717 10.304842 0.322534 -0.006854 0.011876 0.017638 0.007752 -0.010648 -0.002236 -13.336056 -45.290172 -4.188009 73.177557 0.457609 58.427252 12.221123 78.850528 20.175666 -6.468759 30.788860 9.163787 4.119951 -9.226275 -0.085310 -0.036378 -0.031591 0.049052 -0.011800 -0.004520 0.005189 
18.313236 0.931264 -2.922089 -5.469168 75.536139 -2.994814 -10.804909 26.879822 -6.340569 -33.607393 -6.672169 -10.242380 15.704217 7.907940 49.437589 46.914667 -11.555029 -11.030332 -5.797936 6.869600 -14.546265 1.336917 -28.053483 -2.923373 12.320132 10.722791 -31.148962 -28.573583 -2.780228 72.201824 -35.812074 9.870092 9.108132 8.421992 -12.018705 -10.095625 -1.199566 6.112108 21.520176 14.706868 7.067893 12.877558 -13.551183 -8.967528 -31.274271 -6.134071 1.810182 -13.288490 2.692849 1.391718 9.672382 -1.609520 1.533187 -8.307972 7.141695 27.761582 10.115225 -74.217148 -9.284633 50.591970 179.915500 -74.327290 -178.482634 9.187017 -14.461347 4.282297 3.716095 9.544803 0.334265 -0.004375 0.011387 0.016426 0.009618 -0.012284 -0.003316 -14.529253 -45.930349 -3.605601 72.023897 -0.386213 58.049830 11.643764 78.163725 19.030660 -5.643222 31.063672 8.628480 4.505805 -9.001825 -0.115822 -0.038662 -0.030534 0.048275 -0.015642 -0.004944 0.004508 
